<mxfile host="app.diagrams.net" agent="Mozilla/5.0 (Windows NT 10.0; Win64; x64) AppleWebKit/537.36 (KHTML, like Gecko) Chrome/140.0.0.0 Safari/537.36 Edg/140.0.0.0" version="28.2.5">
  <diagram name="Page-1" id="YIGLXb0DAIJceZMKsTl5">
    <mxGraphModel dx="2298" dy="1200" grid="1" gridSize="10" guides="1" tooltips="1" connect="1" arrows="1" fold="1" page="1" pageScale="1" pageWidth="827" pageHeight="1169" math="0" shadow="0">
      <root>
        <mxCell id="0" />
        <mxCell id="1" parent="0" />
        <mxCell id="2SqjKFACN-Qjn2k_Cwie-98" value="" style="rounded=0;whiteSpace=wrap;html=1;fillColor=none;dashed=1;dashPattern=8 8;strokeColor=#B266FF;strokeWidth=3;perimeterSpacing=1;fontColor=#ffffff;" vertex="1" parent="1">
          <mxGeometry x="1115" y="500" width="270" height="1110" as="geometry" />
        </mxCell>
        <mxCell id="2SqjKFACN-Qjn2k_Cwie-96" value="" style="verticalLabelPosition=bottom;verticalAlign=top;html=1;shape=mxgraph.basic.polygon;polyCoords=[[0.36,0],[0.89,0],[0.89,0.24],[0.89,0.72],[0.89,0.98],[0.38,0.98],[0.01,0.98],[0.01,0.67],[0.36,0.67]];polyline=0;fillColor=none;dashed=1;dashPattern=8 8;strokeWidth=3;strokeColor=light-dark(#FF3333,#EDEDED);fontColor=light-dark(#1ba1e2, #ededed);" vertex="1" parent="1">
          <mxGeometry x="10" y="500" width="1105" height="1130" as="geometry" />
        </mxCell>
        <mxCell id="2SqjKFACN-Qjn2k_Cwie-5" value="" style="rounded=0;whiteSpace=wrap;html=1;fillColor=none;dashed=1;dashPattern=8 8;gradientColor=#97d077;strokeColor=light-dark(#61ff05, #446e2c);strokeWidth=3;perimeterSpacing=1;fontSize=14;" vertex="1" parent="1">
          <mxGeometry x="20" y="40" width="240" height="1200" as="geometry" />
        </mxCell>
        <mxCell id="pRl0A9mQGTMybwTmGNGN-6" style="edgeStyle=orthogonalEdgeStyle;rounded=0;orthogonalLoop=1;jettySize=auto;html=1;fontSize=14;" parent="1" source="pRl0A9mQGTMybwTmGNGN-1" target="pRl0A9mQGTMybwTmGNGN-5" edge="1">
          <mxGeometry relative="1" as="geometry" />
        </mxCell>
        <mxCell id="pRl0A9mQGTMybwTmGNGN-7" value="16 x 320 x 320" style="edgeLabel;html=1;align=center;verticalAlign=middle;resizable=0;points=[];fontSize=14;" parent="pRl0A9mQGTMybwTmGNGN-6" vertex="1" connectable="0">
          <mxGeometry x="-0.1034" y="1" relative="1" as="geometry">
            <mxPoint as="offset" />
          </mxGeometry>
        </mxCell>
        <mxCell id="pRl0A9mQGTMybwTmGNGN-1" value="Conv&lt;div&gt;out_ch = 16, k=3, s=2, p=1&lt;/div&gt;" style="rounded=0;whiteSpace=wrap;html=1;fillColor=#dae8fc;strokeColor=#6c8ebf;fontSize=14;" parent="1" vertex="1">
          <mxGeometry x="50" y="180" width="170" height="40" as="geometry" />
        </mxCell>
        <mxCell id="pRl0A9mQGTMybwTmGNGN-3" style="edgeStyle=orthogonalEdgeStyle;rounded=0;orthogonalLoop=1;jettySize=auto;html=1;entryX=0.5;entryY=0;entryDx=0;entryDy=0;fontSize=14;" parent="1" edge="1">
          <mxGeometry relative="1" as="geometry">
            <mxPoint x="134.58" y="130" as="sourcePoint" />
            <mxPoint x="134.58" y="180" as="targetPoint" />
            <Array as="points" />
          </mxGeometry>
        </mxCell>
        <mxCell id="pRl0A9mQGTMybwTmGNGN-4" value="3 x 640 x 640" style="edgeLabel;html=1;align=center;verticalAlign=middle;resizable=0;points=[];fontSize=14;" parent="pRl0A9mQGTMybwTmGNGN-3" vertex="1" connectable="0">
          <mxGeometry x="-0.349" y="2" relative="1" as="geometry">
            <mxPoint x="-2" y="3" as="offset" />
          </mxGeometry>
        </mxCell>
        <mxCell id="2SqjKFACN-Qjn2k_Cwie-4" value="INPUT IMAGE" style="edgeLabel;html=1;align=center;verticalAlign=middle;resizable=0;points=[];fontStyle=1;fontSize=14;" vertex="1" connectable="0" parent="pRl0A9mQGTMybwTmGNGN-3">
          <mxGeometry x="-0.9366" relative="1" as="geometry">
            <mxPoint x="5" y="-12" as="offset" />
          </mxGeometry>
        </mxCell>
        <mxCell id="pRl0A9mQGTMybwTmGNGN-9" style="edgeStyle=orthogonalEdgeStyle;rounded=0;orthogonalLoop=1;jettySize=auto;html=1;entryX=0.5;entryY=0;entryDx=0;entryDy=0;fontSize=14;" parent="1" source="pRl0A9mQGTMybwTmGNGN-5" target="pRl0A9mQGTMybwTmGNGN-8" edge="1">
          <mxGeometry relative="1" as="geometry" />
        </mxCell>
        <mxCell id="pRl0A9mQGTMybwTmGNGN-10" value="32 x 160 x 160" style="edgeLabel;html=1;align=center;verticalAlign=middle;resizable=0;points=[];fontSize=14;" parent="pRl0A9mQGTMybwTmGNGN-9" vertex="1" connectable="0">
          <mxGeometry x="-0.1149" y="2" relative="1" as="geometry">
            <mxPoint as="offset" />
          </mxGeometry>
        </mxCell>
        <mxCell id="pRl0A9mQGTMybwTmGNGN-5" value="Conv&lt;br&gt;&lt;div&gt;&lt;span style=&quot;background-color: transparent; color: light-dark(rgb(0, 0, 0), rgb(255, 255, 255));&quot;&gt;out_ch = 32,&lt;/span&gt;&lt;span style=&quot;background-color: transparent; color: light-dark(rgb(0, 0, 0), rgb(255, 255, 255));&quot;&gt;&amp;nbsp;&lt;/span&gt;k=3, s=2, p=1&lt;/div&gt;" style="rounded=0;whiteSpace=wrap;html=1;fillColor=#dae8fc;strokeColor=#6c8ebf;fontSize=14;" parent="1" vertex="1">
          <mxGeometry x="50" y="280" width="170" height="50" as="geometry" />
        </mxCell>
        <mxCell id="pRl0A9mQGTMybwTmGNGN-12" style="edgeStyle=orthogonalEdgeStyle;rounded=0;orthogonalLoop=1;jettySize=auto;html=1;fontSize=14;" parent="1" source="pRl0A9mQGTMybwTmGNGN-8" target="pRl0A9mQGTMybwTmGNGN-11" edge="1">
          <mxGeometry relative="1" as="geometry" />
        </mxCell>
        <mxCell id="pRl0A9mQGTMybwTmGNGN-13" value="64 x 160 x 160" style="edgeLabel;html=1;align=center;verticalAlign=middle;resizable=0;points=[];fontSize=14;" parent="pRl0A9mQGTMybwTmGNGN-12" vertex="1" connectable="0">
          <mxGeometry x="-0.2299" relative="1" as="geometry">
            <mxPoint as="offset" />
          </mxGeometry>
        </mxCell>
        <mxCell id="pRl0A9mQGTMybwTmGNGN-8" value="&lt;div&gt;CSP&lt;/div&gt;&lt;div&gt;out_ch=64, CSP = False&lt;/div&gt;" style="rounded=0;whiteSpace=wrap;html=1;fillColor=#e1d5e7;strokeColor=#9673a6;fontSize=14;" parent="1" vertex="1">
          <mxGeometry x="50" y="390" width="170" height="60" as="geometry" />
        </mxCell>
        <mxCell id="pRl0A9mQGTMybwTmGNGN-15" style="edgeStyle=orthogonalEdgeStyle;rounded=0;orthogonalLoop=1;jettySize=auto;html=1;fontSize=14;" parent="1" source="pRl0A9mQGTMybwTmGNGN-11" target="pRl0A9mQGTMybwTmGNGN-14" edge="1">
          <mxGeometry relative="1" as="geometry" />
        </mxCell>
        <mxCell id="pRl0A9mQGTMybwTmGNGN-18" value="64 x 80 x 80" style="edgeLabel;html=1;align=center;verticalAlign=middle;resizable=0;points=[];fontSize=14;" parent="pRl0A9mQGTMybwTmGNGN-15" vertex="1" connectable="0">
          <mxGeometry x="-0.092" y="1" relative="1" as="geometry">
            <mxPoint as="offset" />
          </mxGeometry>
        </mxCell>
        <mxCell id="pRl0A9mQGTMybwTmGNGN-11" value="Conv&lt;br&gt;&lt;div&gt;&lt;span style=&quot;background-color: transparent; color: light-dark(rgb(0, 0, 0), rgb(255, 255, 255));&quot;&gt;out_ch = 64,&amp;nbsp;&lt;/span&gt;k=3, s=2, p=1&lt;/div&gt;" style="rounded=0;whiteSpace=wrap;html=1;fillColor=#dae8fc;strokeColor=#6c8ebf;fontSize=14;" parent="1" vertex="1">
          <mxGeometry x="50" y="510" width="170" height="60" as="geometry" />
        </mxCell>
        <mxCell id="pRl0A9mQGTMybwTmGNGN-20" style="edgeStyle=orthogonalEdgeStyle;rounded=0;orthogonalLoop=1;jettySize=auto;html=1;fontSize=14;" parent="1" source="pRl0A9mQGTMybwTmGNGN-14" target="pRl0A9mQGTMybwTmGNGN-19" edge="1">
          <mxGeometry relative="1" as="geometry" />
        </mxCell>
        <mxCell id="pRl0A9mQGTMybwTmGNGN-21" value="128 x 80 x 80" style="edgeLabel;html=1;align=center;verticalAlign=middle;resizable=0;points=[];fontSize=14;" parent="pRl0A9mQGTMybwTmGNGN-20" vertex="1" connectable="0">
          <mxGeometry x="-0.069" y="1" relative="1" as="geometry">
            <mxPoint as="offset" />
          </mxGeometry>
        </mxCell>
        <mxCell id="2SqjKFACN-Qjn2k_Cwie-18" style="edgeStyle=orthogonalEdgeStyle;rounded=0;orthogonalLoop=1;jettySize=auto;html=1;entryX=0;entryY=0.5;entryDx=0;entryDy=0;" edge="1" parent="1" source="pRl0A9mQGTMybwTmGNGN-14" target="2SqjKFACN-Qjn2k_Cwie-40">
          <mxGeometry relative="1" as="geometry">
            <mxPoint x="370" y="660" as="targetPoint" />
          </mxGeometry>
        </mxCell>
        <mxCell id="pRl0A9mQGTMybwTmGNGN-14" value="&lt;div&gt;CSP&lt;/div&gt;&lt;div&gt;out_ch=128, CSP = False&lt;/div&gt;" style="rounded=0;whiteSpace=wrap;html=1;fillColor=#e1d5e7;strokeColor=#9673a6;fontSize=14;" parent="1" vertex="1">
          <mxGeometry x="50" y="630" width="170" height="60" as="geometry" />
        </mxCell>
        <mxCell id="pRl0A9mQGTMybwTmGNGN-23" style="edgeStyle=orthogonalEdgeStyle;rounded=0;orthogonalLoop=1;jettySize=auto;html=1;fontSize=14;" parent="1" source="pRl0A9mQGTMybwTmGNGN-19" target="pRl0A9mQGTMybwTmGNGN-22" edge="1">
          <mxGeometry relative="1" as="geometry" />
        </mxCell>
        <mxCell id="pRl0A9mQGTMybwTmGNGN-24" value="128 x 40 x 40" style="edgeLabel;html=1;align=center;verticalAlign=middle;resizable=0;points=[];fontSize=14;" parent="pRl0A9mQGTMybwTmGNGN-23" vertex="1" connectable="0">
          <mxGeometry x="0.0029" y="-1" relative="1" as="geometry">
            <mxPoint as="offset" />
          </mxGeometry>
        </mxCell>
        <mxCell id="pRl0A9mQGTMybwTmGNGN-19" value="Conv&lt;br&gt;&lt;div&gt;&lt;span style=&quot;background-color: transparent; color: light-dark(rgb(0, 0, 0), rgb(255, 255, 255));&quot;&gt;out_ch = 128,&amp;nbsp;&lt;/span&gt;k=3, s=2, p=1&lt;/div&gt;" style="rounded=0;whiteSpace=wrap;html=1;fillColor=#dae8fc;strokeColor=#6c8ebf;fontSize=14;" parent="1" vertex="1">
          <mxGeometry x="50" y="810" width="170" height="60" as="geometry" />
        </mxCell>
        <mxCell id="pRl0A9mQGTMybwTmGNGN-26" style="edgeStyle=orthogonalEdgeStyle;rounded=0;orthogonalLoop=1;jettySize=auto;html=1;entryX=0.5;entryY=0;entryDx=0;entryDy=0;fontSize=14;" parent="1" source="pRl0A9mQGTMybwTmGNGN-22" target="pRl0A9mQGTMybwTmGNGN-25" edge="1">
          <mxGeometry relative="1" as="geometry" />
        </mxCell>
        <mxCell id="pRl0A9mQGTMybwTmGNGN-27" value="128 x 40 x 40" style="edgeLabel;html=1;align=center;verticalAlign=middle;resizable=0;points=[];fontSize=14;" parent="pRl0A9mQGTMybwTmGNGN-26" vertex="1" connectable="0">
          <mxGeometry x="-0.258" y="-1" relative="1" as="geometry">
            <mxPoint x="1" y="7" as="offset" />
          </mxGeometry>
        </mxCell>
        <mxCell id="2SqjKFACN-Qjn2k_Cwie-19" style="edgeStyle=orthogonalEdgeStyle;rounded=0;orthogonalLoop=1;jettySize=auto;html=1;entryX=0;entryY=0.5;entryDx=0;entryDy=0;" edge="1" parent="1" source="pRl0A9mQGTMybwTmGNGN-22" target="2SqjKFACN-Qjn2k_Cwie-26">
          <mxGeometry relative="1" as="geometry">
            <mxPoint x="340" y="900" as="targetPoint" />
            <Array as="points">
              <mxPoint x="350" y="960" />
              <mxPoint x="350" y="1080" />
            </Array>
          </mxGeometry>
        </mxCell>
        <mxCell id="pRl0A9mQGTMybwTmGNGN-22" value="&lt;div&gt;CSP&lt;/div&gt;&lt;div&gt;out_ch=128, CSP = True&lt;/div&gt;" style="rounded=0;whiteSpace=wrap;html=1;fillColor=#e1d5e7;strokeColor=#9673a6;fontSize=14;" parent="1" vertex="1">
          <mxGeometry x="50" y="930" width="170" height="60" as="geometry" />
        </mxCell>
        <mxCell id="pRl0A9mQGTMybwTmGNGN-29" style="edgeStyle=orthogonalEdgeStyle;rounded=0;orthogonalLoop=1;jettySize=auto;html=1;fontSize=14;" parent="1" source="pRl0A9mQGTMybwTmGNGN-25" target="pRl0A9mQGTMybwTmGNGN-28" edge="1">
          <mxGeometry relative="1" as="geometry" />
        </mxCell>
        <mxCell id="pRl0A9mQGTMybwTmGNGN-30" value="256 x 20 x 20" style="edgeLabel;html=1;align=center;verticalAlign=middle;resizable=0;points=[];fontSize=14;" parent="pRl0A9mQGTMybwTmGNGN-29" vertex="1" connectable="0">
          <mxGeometry x="0.0029" y="-1" relative="1" as="geometry">
            <mxPoint as="offset" />
          </mxGeometry>
        </mxCell>
        <mxCell id="pRl0A9mQGTMybwTmGNGN-25" value="Conv&lt;br&gt;&lt;div&gt;&lt;span style=&quot;background-color: transparent; color: light-dark(rgb(0, 0, 0), rgb(255, 255, 255));&quot;&gt;out_ch = 256,&lt;/span&gt;&lt;span style=&quot;background-color: transparent; color: light-dark(rgb(0, 0, 0), rgb(255, 255, 255));&quot;&gt;&amp;nbsp;&lt;/span&gt;k=3, s=2, p=1&lt;/div&gt;" style="rounded=0;whiteSpace=wrap;html=1;fillColor=#dae8fc;strokeColor=#6c8ebf;fontSize=14;" parent="1" vertex="1">
          <mxGeometry x="50" y="1050" width="170" height="60" as="geometry" />
        </mxCell>
        <mxCell id="pRl0A9mQGTMybwTmGNGN-32" style="edgeStyle=orthogonalEdgeStyle;rounded=0;orthogonalLoop=1;jettySize=auto;html=1;fontSize=14;" parent="1" source="pRl0A9mQGTMybwTmGNGN-28" target="pRl0A9mQGTMybwTmGNGN-31" edge="1">
          <mxGeometry relative="1" as="geometry" />
        </mxCell>
        <mxCell id="pRl0A9mQGTMybwTmGNGN-33" value="256 x 20 x 20" style="edgeLabel;html=1;align=center;verticalAlign=middle;resizable=0;points=[];fontSize=14;" parent="pRl0A9mQGTMybwTmGNGN-32" vertex="1" connectable="0">
          <mxGeometry x="-0.0261" relative="1" as="geometry">
            <mxPoint y="11" as="offset" />
          </mxGeometry>
        </mxCell>
        <mxCell id="pRl0A9mQGTMybwTmGNGN-28" value="&lt;div&gt;CSP&lt;/div&gt;&lt;div&gt;out_ch=256, CSP = True&lt;/div&gt;" style="rounded=0;whiteSpace=wrap;html=1;fillColor=#e1d5e7;strokeColor=#9673a6;fontSize=14;" parent="1" vertex="1">
          <mxGeometry x="50" y="1170" width="170" height="60" as="geometry" />
        </mxCell>
        <mxCell id="2SqjKFACN-Qjn2k_Cwie-2" style="edgeStyle=orthogonalEdgeStyle;rounded=0;orthogonalLoop=1;jettySize=auto;html=1;entryX=0.5;entryY=0;entryDx=0;entryDy=0;fontSize=14;" edge="1" parent="1" source="pRl0A9mQGTMybwTmGNGN-31" target="2SqjKFACN-Qjn2k_Cwie-1">
          <mxGeometry relative="1" as="geometry" />
        </mxCell>
        <mxCell id="2SqjKFACN-Qjn2k_Cwie-3" value="256 x 20 x 20" style="edgeLabel;html=1;align=center;verticalAlign=middle;resizable=0;points=[];fontSize=14;" vertex="1" connectable="0" parent="2SqjKFACN-Qjn2k_Cwie-2">
          <mxGeometry x="-0.1667" relative="1" as="geometry">
            <mxPoint as="offset" />
          </mxGeometry>
        </mxCell>
        <mxCell id="pRl0A9mQGTMybwTmGNGN-31" value="&lt;div&gt;SPP&lt;/div&gt;&lt;div&gt;out_ch=256, k = 5&lt;/div&gt;" style="rounded=0;whiteSpace=wrap;html=1;fillColor=#d5e8d4;strokeColor=#82b366;fontSize=14;" parent="1" vertex="1">
          <mxGeometry x="50" y="1290" width="170" height="60" as="geometry" />
        </mxCell>
        <mxCell id="2SqjKFACN-Qjn2k_Cwie-20" style="edgeStyle=orthogonalEdgeStyle;rounded=0;orthogonalLoop=1;jettySize=auto;html=1;entryX=0.5;entryY=1;entryDx=0;entryDy=0;" edge="1" parent="1" source="2SqjKFACN-Qjn2k_Cwie-1" target="2SqjKFACN-Qjn2k_Cwie-25">
          <mxGeometry relative="1" as="geometry">
            <mxPoint x="450" y="1380" as="targetPoint" />
          </mxGeometry>
        </mxCell>
        <mxCell id="2SqjKFACN-Qjn2k_Cwie-69" style="edgeStyle=orthogonalEdgeStyle;rounded=0;orthogonalLoop=1;jettySize=auto;html=1;entryX=0;entryY=0.5;entryDx=0;entryDy=0;" edge="1" parent="1" source="2SqjKFACN-Qjn2k_Cwie-1" target="2SqjKFACN-Qjn2k_Cwie-68">
          <mxGeometry relative="1" as="geometry" />
        </mxCell>
        <mxCell id="2SqjKFACN-Qjn2k_Cwie-1" value="&lt;div&gt;SPP&lt;/div&gt;&lt;div&gt;out_ch=256, k = 5&lt;/div&gt;" style="rounded=0;whiteSpace=wrap;html=1;fillColor=#60a917;strokeColor=#2D7600;fontColor=#ffffff;fontSize=14;" vertex="1" parent="1">
          <mxGeometry x="50" y="1410" width="170" height="60" as="geometry" />
        </mxCell>
        <mxCell id="2SqjKFACN-Qjn2k_Cwie-6" value="&lt;font style=&quot;color: light-dark(rgb(87, 171, 64), rgb(237, 237, 237));&quot;&gt;Backbone&lt;/font&gt;" style="text;html=1;align=center;verticalAlign=middle;whiteSpace=wrap;rounded=0;fontStyle=1;fontSize=14;" vertex="1" parent="1">
          <mxGeometry x="70" y="50" width="130" height="40" as="geometry" />
        </mxCell>
        <mxCell id="2SqjKFACN-Qjn2k_Cwie-7" value="&lt;b&gt;P1&lt;/b&gt;" style="text;html=1;align=center;verticalAlign=middle;resizable=0;points=[];autosize=1;strokeColor=none;fillColor=none;fontSize=14;" vertex="1" parent="1">
          <mxGeometry x="220" y="185" width="40" height="30" as="geometry" />
        </mxCell>
        <mxCell id="2SqjKFACN-Qjn2k_Cwie-8" value="&lt;b&gt;P2&lt;/b&gt;" style="text;html=1;align=center;verticalAlign=middle;resizable=0;points=[];autosize=1;strokeColor=none;fillColor=none;fontSize=14;" vertex="1" parent="1">
          <mxGeometry x="220" y="290" width="40" height="30" as="geometry" />
        </mxCell>
        <mxCell id="2SqjKFACN-Qjn2k_Cwie-9" value="&lt;b&gt;P2&lt;/b&gt;" style="text;html=1;align=center;verticalAlign=middle;resizable=0;points=[];autosize=1;strokeColor=none;fillColor=none;fontSize=14;" vertex="1" parent="1">
          <mxGeometry x="220" y="405" width="40" height="30" as="geometry" />
        </mxCell>
        <mxCell id="2SqjKFACN-Qjn2k_Cwie-10" value="&lt;b&gt;P3&lt;/b&gt;" style="text;html=1;align=center;verticalAlign=middle;resizable=0;points=[];autosize=1;strokeColor=none;fillColor=none;fontSize=14;" vertex="1" parent="1">
          <mxGeometry x="220" y="525" width="40" height="30" as="geometry" />
        </mxCell>
        <mxCell id="2SqjKFACN-Qjn2k_Cwie-11" value="&lt;b&gt;P3&lt;/b&gt;" style="text;html=1;align=center;verticalAlign=middle;resizable=0;points=[];autosize=1;strokeColor=none;fillColor=none;fontSize=14;" vertex="1" parent="1">
          <mxGeometry x="220" y="630" width="40" height="30" as="geometry" />
        </mxCell>
        <mxCell id="2SqjKFACN-Qjn2k_Cwie-12" value="&lt;b&gt;P4&lt;/b&gt;" style="text;html=1;align=center;verticalAlign=middle;resizable=0;points=[];autosize=1;strokeColor=none;fillColor=none;fontSize=14;" vertex="1" parent="1">
          <mxGeometry x="220" y="825" width="40" height="30" as="geometry" />
        </mxCell>
        <mxCell id="2SqjKFACN-Qjn2k_Cwie-13" value="&lt;b&gt;P4&lt;/b&gt;" style="text;html=1;align=center;verticalAlign=middle;resizable=0;points=[];autosize=1;strokeColor=none;fillColor=none;fontSize=14;" vertex="1" parent="1">
          <mxGeometry x="220" y="930" width="40" height="30" as="geometry" />
        </mxCell>
        <mxCell id="2SqjKFACN-Qjn2k_Cwie-14" value="&lt;b&gt;P5&lt;/b&gt;" style="text;html=1;align=center;verticalAlign=middle;resizable=0;points=[];autosize=1;strokeColor=none;fillColor=none;fontSize=14;" vertex="1" parent="1">
          <mxGeometry x="220" y="1065" width="40" height="30" as="geometry" />
        </mxCell>
        <mxCell id="2SqjKFACN-Qjn2k_Cwie-15" value="&lt;b&gt;P5&lt;/b&gt;" style="text;html=1;align=center;verticalAlign=middle;resizable=0;points=[];autosize=1;strokeColor=none;fillColor=none;fontSize=14;" vertex="1" parent="1">
          <mxGeometry x="220" y="1185" width="40" height="30" as="geometry" />
        </mxCell>
        <mxCell id="2SqjKFACN-Qjn2k_Cwie-16" value="&lt;b&gt;P5&lt;/b&gt;" style="text;html=1;align=center;verticalAlign=middle;resizable=0;points=[];autosize=1;strokeColor=none;fillColor=none;fontSize=14;" vertex="1" parent="1">
          <mxGeometry x="220" y="1305" width="40" height="30" as="geometry" />
        </mxCell>
        <mxCell id="2SqjKFACN-Qjn2k_Cwie-17" value="&lt;b&gt;P5&lt;/b&gt;" style="text;html=1;align=center;verticalAlign=middle;resizable=0;points=[];autosize=1;strokeColor=none;fillColor=none;fontSize=14;" vertex="1" parent="1">
          <mxGeometry x="220" y="1410" width="40" height="30" as="geometry" />
        </mxCell>
        <mxCell id="2SqjKFACN-Qjn2k_Cwie-21" value="128 x 80 x 80" style="edgeLabel;html=1;align=center;verticalAlign=middle;resizable=0;points=[];fontSize=14;" vertex="1" connectable="0" parent="1">
          <mxGeometry x="300" y="650" as="geometry" />
        </mxCell>
        <mxCell id="2SqjKFACN-Qjn2k_Cwie-23" value="128 x 40 x 40" style="edgeLabel;html=1;align=center;verticalAlign=middle;resizable=0;points=[];fontSize=14;" vertex="1" connectable="0" parent="1">
          <mxGeometry x="320" y="950" as="geometry" />
        </mxCell>
        <mxCell id="2SqjKFACN-Qjn2k_Cwie-24" value="256 x 20 x 20" style="edgeLabel;html=1;align=center;verticalAlign=middle;resizable=0;points=[];fontSize=14;" vertex="1" connectable="0" parent="1">
          <mxGeometry x="260" y="1425" as="geometry" />
        </mxCell>
        <mxCell id="2SqjKFACN-Qjn2k_Cwie-27" style="edgeStyle=orthogonalEdgeStyle;rounded=0;orthogonalLoop=1;jettySize=auto;html=1;" edge="1" parent="1" source="2SqjKFACN-Qjn2k_Cwie-25" target="2SqjKFACN-Qjn2k_Cwie-26">
          <mxGeometry relative="1" as="geometry" />
        </mxCell>
        <mxCell id="2SqjKFACN-Qjn2k_Cwie-28" value="256 x 40 x 40" style="edgeLabel;html=1;align=center;verticalAlign=middle;resizable=0;points=[];" vertex="1" connectable="0" parent="2SqjKFACN-Qjn2k_Cwie-27">
          <mxGeometry x="-0.0573" y="1" relative="1" as="geometry">
            <mxPoint as="offset" />
          </mxGeometry>
        </mxCell>
        <mxCell id="2SqjKFACN-Qjn2k_Cwie-25" value="Upsample&lt;br&gt;&lt;div&gt;scale_factor = 2&lt;/div&gt;" style="rounded=0;whiteSpace=wrap;html=1;fillColor=#008a00;strokeColor=#005700;fontColor=#ffffff;" vertex="1" parent="1">
          <mxGeometry x="458.57" y="1170" width="170" height="60" as="geometry" />
        </mxCell>
        <mxCell id="2SqjKFACN-Qjn2k_Cwie-32" style="edgeStyle=orthogonalEdgeStyle;rounded=0;orthogonalLoop=1;jettySize=auto;html=1;entryX=0.5;entryY=1;entryDx=0;entryDy=0;" edge="1" parent="1" source="2SqjKFACN-Qjn2k_Cwie-26" target="2SqjKFACN-Qjn2k_Cwie-30">
          <mxGeometry relative="1" as="geometry" />
        </mxCell>
        <mxCell id="2SqjKFACN-Qjn2k_Cwie-33" value="384 x 40 x 40" style="edgeLabel;html=1;align=center;verticalAlign=middle;resizable=0;points=[];" vertex="1" connectable="0" parent="2SqjKFACN-Qjn2k_Cwie-32">
          <mxGeometry x="-0.0138" relative="1" as="geometry">
            <mxPoint as="offset" />
          </mxGeometry>
        </mxCell>
        <mxCell id="2SqjKFACN-Qjn2k_Cwie-26" value="&lt;div&gt;&lt;font&gt;Concat&lt;/font&gt;&lt;/div&gt;" style="rounded=0;whiteSpace=wrap;html=1;fillColor=#1ba1e2;strokeColor=#006EAF;fontColor=#ffffff;fontSize=15;" vertex="1" parent="1">
          <mxGeometry x="458.57" y="1055" width="170" height="50" as="geometry" />
        </mxCell>
        <mxCell id="2SqjKFACN-Qjn2k_Cwie-37" style="edgeStyle=orthogonalEdgeStyle;rounded=0;orthogonalLoop=1;jettySize=auto;html=1;entryX=0.5;entryY=1;entryDx=0;entryDy=0;" edge="1" parent="1" source="2SqjKFACN-Qjn2k_Cwie-30" target="2SqjKFACN-Qjn2k_Cwie-36">
          <mxGeometry relative="1" as="geometry" />
        </mxCell>
        <mxCell id="2SqjKFACN-Qjn2k_Cwie-38" value="128 x 40 x 40" style="edgeLabel;html=1;align=center;verticalAlign=middle;resizable=0;points=[];" vertex="1" connectable="0" parent="2SqjKFACN-Qjn2k_Cwie-37">
          <mxGeometry x="-0.0667" relative="1" as="geometry">
            <mxPoint as="offset" />
          </mxGeometry>
        </mxCell>
        <mxCell id="2SqjKFACN-Qjn2k_Cwie-59" style="edgeStyle=orthogonalEdgeStyle;rounded=0;orthogonalLoop=1;jettySize=auto;html=1;entryX=0;entryY=0.5;entryDx=0;entryDy=0;" edge="1" parent="1" source="2SqjKFACN-Qjn2k_Cwie-30" target="2SqjKFACN-Qjn2k_Cwie-50">
          <mxGeometry relative="1" as="geometry">
            <mxPoint x="828.5699999999999" y="960" as="targetPoint" />
          </mxGeometry>
        </mxCell>
        <mxCell id="2SqjKFACN-Qjn2k_Cwie-30" value="&lt;div&gt;CSP&lt;/div&gt;&lt;div&gt;out_ch=128, CSP = False&lt;/div&gt;" style="rounded=0;whiteSpace=wrap;html=1;fillColor=#e1d5e7;strokeColor=#9673a6;" vertex="1" parent="1">
          <mxGeometry x="458.57" y="930" width="170" height="60" as="geometry" />
        </mxCell>
        <mxCell id="2SqjKFACN-Qjn2k_Cwie-41" style="edgeStyle=orthogonalEdgeStyle;rounded=0;orthogonalLoop=1;jettySize=auto;html=1;" edge="1" parent="1" source="2SqjKFACN-Qjn2k_Cwie-36" target="2SqjKFACN-Qjn2k_Cwie-40">
          <mxGeometry relative="1" as="geometry" />
        </mxCell>
        <mxCell id="2SqjKFACN-Qjn2k_Cwie-42" value="128 x 80 x 80" style="edgeLabel;html=1;align=center;verticalAlign=middle;resizable=0;points=[];" vertex="1" connectable="0" parent="2SqjKFACN-Qjn2k_Cwie-41">
          <mxGeometry x="0.0073" y="1" relative="1" as="geometry">
            <mxPoint as="offset" />
          </mxGeometry>
        </mxCell>
        <mxCell id="2SqjKFACN-Qjn2k_Cwie-36" value="Upsample&lt;br&gt;&lt;div&gt;scale_factor = 2&lt;/div&gt;" style="rounded=0;whiteSpace=wrap;html=1;fillColor=#008a00;strokeColor=#005700;fontColor=#ffffff;" vertex="1" parent="1">
          <mxGeometry x="458.57" y="810" width="170" height="60" as="geometry" />
        </mxCell>
        <mxCell id="2SqjKFACN-Qjn2k_Cwie-44" style="edgeStyle=orthogonalEdgeStyle;rounded=0;orthogonalLoop=1;jettySize=auto;html=1;entryX=0.5;entryY=1;entryDx=0;entryDy=0;" edge="1" parent="1" source="2SqjKFACN-Qjn2k_Cwie-40" target="2SqjKFACN-Qjn2k_Cwie-43">
          <mxGeometry relative="1" as="geometry" />
        </mxCell>
        <mxCell id="2SqjKFACN-Qjn2k_Cwie-45" value="256 x 80 x 80" style="edgeLabel;html=1;align=center;verticalAlign=middle;resizable=0;points=[];" vertex="1" connectable="0" parent="2SqjKFACN-Qjn2k_Cwie-44">
          <mxGeometry x="0.04" y="3" relative="1" as="geometry">
            <mxPoint as="offset" />
          </mxGeometry>
        </mxCell>
        <mxCell id="2SqjKFACN-Qjn2k_Cwie-40" value="&lt;div&gt;&lt;font&gt;Concat&lt;/font&gt;&lt;/div&gt;" style="rounded=0;whiteSpace=wrap;html=1;fillColor=#1ba1e2;strokeColor=#006EAF;fontColor=#ffffff;fontSize=15;" vertex="1" parent="1">
          <mxGeometry x="458.57" y="635" width="170" height="50" as="geometry" />
        </mxCell>
        <mxCell id="2SqjKFACN-Qjn2k_Cwie-49" style="edgeStyle=orthogonalEdgeStyle;rounded=0;orthogonalLoop=1;jettySize=auto;html=1;entryX=0.5;entryY=0;entryDx=0;entryDy=0;" edge="1" parent="1" source="2SqjKFACN-Qjn2k_Cwie-43" target="2SqjKFACN-Qjn2k_Cwie-47">
          <mxGeometry relative="1" as="geometry">
            <mxPoint x="653.5699999999999" y="440" as="targetPoint" />
            <Array as="points">
              <mxPoint x="803.5699999999999" y="540" />
            </Array>
          </mxGeometry>
        </mxCell>
        <mxCell id="2SqjKFACN-Qjn2k_Cwie-61" value="64 x 80 x 80" style="edgeLabel;html=1;align=center;verticalAlign=middle;resizable=0;points=[];" vertex="1" connectable="0" parent="2SqjKFACN-Qjn2k_Cwie-49">
          <mxGeometry x="-0.231" y="-1" relative="1" as="geometry">
            <mxPoint y="-11" as="offset" />
          </mxGeometry>
        </mxCell>
        <mxCell id="2SqjKFACN-Qjn2k_Cwie-77" style="edgeStyle=orthogonalEdgeStyle;rounded=0;orthogonalLoop=1;jettySize=auto;html=1;entryX=0;entryY=0.5;entryDx=0;entryDy=0;" edge="1" parent="1" source="2SqjKFACN-Qjn2k_Cwie-43" target="2SqjKFACN-Qjn2k_Cwie-85">
          <mxGeometry relative="1" as="geometry">
            <mxPoint x="1210" y="540" as="targetPoint" />
          </mxGeometry>
        </mxCell>
        <mxCell id="2SqjKFACN-Qjn2k_Cwie-80" value="64 x 80 x 80" style="edgeLabel;html=1;align=center;verticalAlign=middle;resizable=0;points=[];" vertex="1" connectable="0" parent="2SqjKFACN-Qjn2k_Cwie-77">
          <mxGeometry x="0.5037" y="2" relative="1" as="geometry">
            <mxPoint as="offset" />
          </mxGeometry>
        </mxCell>
        <mxCell id="2SqjKFACN-Qjn2k_Cwie-43" value="&lt;div&gt;CSP&lt;/div&gt;&lt;div&gt;out_ch=64, CSP = False&lt;/div&gt;" style="rounded=0;whiteSpace=wrap;html=1;fillColor=#e1d5e7;strokeColor=#9673a6;" vertex="1" parent="1">
          <mxGeometry x="458.57" y="510" width="170" height="60" as="geometry" />
        </mxCell>
        <mxCell id="2SqjKFACN-Qjn2k_Cwie-46" value="&lt;b&gt;P3&lt;/b&gt;" style="text;html=1;align=center;verticalAlign=middle;resizable=0;points=[];autosize=1;strokeColor=none;fillColor=none;" vertex="1" parent="1">
          <mxGeometry x="628.5699999999999" y="510" width="40" height="30" as="geometry" />
        </mxCell>
        <mxCell id="2SqjKFACN-Qjn2k_Cwie-51" style="edgeStyle=orthogonalEdgeStyle;rounded=0;orthogonalLoop=1;jettySize=auto;html=1;" edge="1" parent="1" source="2SqjKFACN-Qjn2k_Cwie-47" target="2SqjKFACN-Qjn2k_Cwie-50">
          <mxGeometry relative="1" as="geometry" />
        </mxCell>
        <mxCell id="2SqjKFACN-Qjn2k_Cwie-57" value="64 x 40 x 40" style="edgeLabel;html=1;align=center;verticalAlign=middle;resizable=0;points=[];" vertex="1" connectable="0" parent="2SqjKFACN-Qjn2k_Cwie-51">
          <mxGeometry x="-0.1053" relative="1" as="geometry">
            <mxPoint as="offset" />
          </mxGeometry>
        </mxCell>
        <mxCell id="2SqjKFACN-Qjn2k_Cwie-47" value="Conv&lt;br&gt;&lt;div&gt;&lt;span style=&quot;background-color: transparent; color: light-dark(rgb(0, 0, 0), rgb(255, 255, 255));&quot;&gt;out_ch = 64,&lt;/span&gt;&lt;span style=&quot;background-color: transparent; color: light-dark(rgb(0, 0, 0), rgb(255, 255, 255));&quot;&gt;&amp;nbsp;&lt;/span&gt;k=3, s=2, p=1&lt;/div&gt;" style="rounded=0;whiteSpace=wrap;html=1;fillColor=#dae8fc;strokeColor=#6c8ebf;" vertex="1" parent="1">
          <mxGeometry x="790" y="635" width="170" height="50" as="geometry" />
        </mxCell>
        <mxCell id="2SqjKFACN-Qjn2k_Cwie-55" style="edgeStyle=orthogonalEdgeStyle;rounded=0;orthogonalLoop=1;jettySize=auto;html=1;" edge="1" parent="1" source="2SqjKFACN-Qjn2k_Cwie-50" target="2SqjKFACN-Qjn2k_Cwie-54">
          <mxGeometry relative="1" as="geometry" />
        </mxCell>
        <mxCell id="2SqjKFACN-Qjn2k_Cwie-60" value="192 x 40 x 40" style="edgeLabel;html=1;align=center;verticalAlign=middle;resizable=0;points=[];" vertex="1" connectable="0" parent="2SqjKFACN-Qjn2k_Cwie-55">
          <mxGeometry x="-0.0202" y="3" relative="1" as="geometry">
            <mxPoint x="2" y="3" as="offset" />
          </mxGeometry>
        </mxCell>
        <mxCell id="2SqjKFACN-Qjn2k_Cwie-50" value="&lt;div&gt;&lt;font&gt;Concat&lt;/font&gt;&lt;/div&gt;" style="rounded=0;whiteSpace=wrap;html=1;fillColor=#1ba1e2;strokeColor=#006EAF;fontColor=#ffffff;fontSize=15;" vertex="1" parent="1">
          <mxGeometry x="790" y="935" width="170" height="50" as="geometry" />
        </mxCell>
        <mxCell id="2SqjKFACN-Qjn2k_Cwie-64" style="edgeStyle=orthogonalEdgeStyle;rounded=0;orthogonalLoop=1;jettySize=auto;html=1;entryX=0.5;entryY=0;entryDx=0;entryDy=0;" edge="1" parent="1" source="2SqjKFACN-Qjn2k_Cwie-54" target="2SqjKFACN-Qjn2k_Cwie-63">
          <mxGeometry relative="1" as="geometry" />
        </mxCell>
        <mxCell id="2SqjKFACN-Qjn2k_Cwie-65" value="128 x 40 x 40" style="edgeLabel;html=1;align=center;verticalAlign=middle;resizable=0;points=[];" vertex="1" connectable="0" parent="2SqjKFACN-Qjn2k_Cwie-64">
          <mxGeometry x="-0.0005" relative="1" as="geometry">
            <mxPoint as="offset" />
          </mxGeometry>
        </mxCell>
        <mxCell id="2SqjKFACN-Qjn2k_Cwie-76" style="edgeStyle=orthogonalEdgeStyle;rounded=0;orthogonalLoop=1;jettySize=auto;html=1;entryX=0;entryY=0.5;entryDx=0;entryDy=0;" edge="1" parent="1" source="2SqjKFACN-Qjn2k_Cwie-54" target="2SqjKFACN-Qjn2k_Cwie-84">
          <mxGeometry relative="1" as="geometry">
            <mxPoint x="1250" y="1080" as="targetPoint" />
          </mxGeometry>
        </mxCell>
        <mxCell id="2SqjKFACN-Qjn2k_Cwie-78" value="&lt;span style=&quot;color: rgba(0, 0, 0, 0); font-family: monospace; font-size: 0px; text-align: start; background-color: rgb(236, 236, 236);&quot;&gt;%3CmxGraphModel%3E%3Croot%3E%3CmxCell%20id%3D%220%22%2F%3E%3CmxCell%20id%3D%221%22%20parent%3D%220%22%2F%3E%3CmxCell%20id%3D%222%22%20value%3D%22128%20x%2040%20x%2040%22%20style%3D%22edgeLabel%3Bhtml%3D1%3Balign%3Dcenter%3BverticalAlign%3Dmiddle%3Bresizable%3D0%3Bpoints%3D%5B%5D%3B%22%20vertex%3D%221%22%20connectable%3D%220%22%20parent%3D%221%22%3E%3CmxGeometry%20x%3D%22955%22%20y%3D%221142.5%22%20as%3D%22geometry%22%2F%3E%3C%2FmxCell%3E%3C%2Froot%3E%3C%2FmxGraphModel%3E&lt;/span&gt;" style="edgeLabel;html=1;align=center;verticalAlign=middle;resizable=0;points=[];" vertex="1" connectable="0" parent="2SqjKFACN-Qjn2k_Cwie-76">
          <mxGeometry x="-0.069" y="-1" relative="1" as="geometry">
            <mxPoint as="offset" />
          </mxGeometry>
        </mxCell>
        <mxCell id="2SqjKFACN-Qjn2k_Cwie-81" value="128 x 40 x 40" style="edgeLabel;html=1;align=center;verticalAlign=middle;resizable=0;points=[];" vertex="1" connectable="0" parent="2SqjKFACN-Qjn2k_Cwie-76">
          <mxGeometry x="-0.0024" relative="1" as="geometry">
            <mxPoint y="-10" as="offset" />
          </mxGeometry>
        </mxCell>
        <mxCell id="2SqjKFACN-Qjn2k_Cwie-54" value="&lt;div&gt;CSP&lt;/div&gt;&lt;div&gt;out_ch=128, CSP = False&lt;/div&gt;" style="rounded=0;whiteSpace=wrap;html=1;fillColor=#e1d5e7;strokeColor=#9673a6;" vertex="1" parent="1">
          <mxGeometry x="790" y="1050" width="170" height="60" as="geometry" />
        </mxCell>
        <mxCell id="2SqjKFACN-Qjn2k_Cwie-58" value="&lt;b&gt;P4&lt;/b&gt;" style="text;html=1;align=center;verticalAlign=middle;resizable=0;points=[];autosize=1;strokeColor=none;fillColor=none;" vertex="1" parent="1">
          <mxGeometry x="628.5699999999999" y="930" width="40" height="30" as="geometry" />
        </mxCell>
        <mxCell id="2SqjKFACN-Qjn2k_Cwie-62" value="&lt;b&gt;P4&lt;/b&gt;" style="text;html=1;align=center;verticalAlign=middle;resizable=0;points=[];autosize=1;strokeColor=none;fillColor=none;" vertex="1" parent="1">
          <mxGeometry x="960" y="1050" width="40" height="30" as="geometry" />
        </mxCell>
        <mxCell id="2SqjKFACN-Qjn2k_Cwie-66" style="edgeStyle=orthogonalEdgeStyle;rounded=0;orthogonalLoop=1;jettySize=auto;html=1;entryX=0.5;entryY=0;entryDx=0;entryDy=0;" edge="1" parent="1" source="2SqjKFACN-Qjn2k_Cwie-63" target="2SqjKFACN-Qjn2k_Cwie-68">
          <mxGeometry relative="1" as="geometry">
            <mxPoint x="875" y="1300.0000000000002" as="targetPoint" />
          </mxGeometry>
        </mxCell>
        <mxCell id="2SqjKFACN-Qjn2k_Cwie-67" value="128 x 20 x 20" style="edgeLabel;html=1;align=center;verticalAlign=middle;resizable=0;points=[];" vertex="1" connectable="0" parent="2SqjKFACN-Qjn2k_Cwie-66">
          <mxGeometry x="-0.0005" relative="1" as="geometry">
            <mxPoint as="offset" />
          </mxGeometry>
        </mxCell>
        <mxCell id="2SqjKFACN-Qjn2k_Cwie-63" value="Conv&lt;br&gt;&lt;div&gt;&lt;span style=&quot;background-color: transparent; color: light-dark(rgb(0, 0, 0), rgb(255, 255, 255));&quot;&gt;out_ch = 128,&lt;/span&gt;&lt;span style=&quot;background-color: transparent; color: light-dark(rgb(0, 0, 0), rgb(255, 255, 255));&quot;&gt;&amp;nbsp;&lt;/span&gt;k=3, s=2, p=1&lt;/div&gt;" style="rounded=0;whiteSpace=wrap;html=1;fillColor=#dae8fc;strokeColor=#6c8ebf;" vertex="1" parent="1">
          <mxGeometry x="790" y="1175" width="170" height="50" as="geometry" />
        </mxCell>
        <mxCell id="2SqjKFACN-Qjn2k_Cwie-71" style="edgeStyle=orthogonalEdgeStyle;rounded=0;orthogonalLoop=1;jettySize=auto;html=1;" edge="1" parent="1" source="2SqjKFACN-Qjn2k_Cwie-68" target="2SqjKFACN-Qjn2k_Cwie-70">
          <mxGeometry relative="1" as="geometry" />
        </mxCell>
        <mxCell id="2SqjKFACN-Qjn2k_Cwie-72" value="384 x 20 x 20" style="edgeLabel;html=1;align=center;verticalAlign=middle;resizable=0;points=[];" vertex="1" connectable="0" parent="2SqjKFACN-Qjn2k_Cwie-71">
          <mxGeometry x="-0.1009" relative="1" as="geometry">
            <mxPoint as="offset" />
          </mxGeometry>
        </mxCell>
        <mxCell id="2SqjKFACN-Qjn2k_Cwie-68" value="&lt;div&gt;&lt;font&gt;Concat&lt;/font&gt;&lt;/div&gt;" style="rounded=0;whiteSpace=wrap;html=1;fillColor=#1ba1e2;strokeColor=#006EAF;fontColor=#ffffff;fontSize=15;" vertex="1" parent="1">
          <mxGeometry x="790" y="1415" width="170" height="50" as="geometry" />
        </mxCell>
        <mxCell id="2SqjKFACN-Qjn2k_Cwie-73" style="edgeStyle=orthogonalEdgeStyle;rounded=0;orthogonalLoop=1;jettySize=auto;html=1;entryX=0;entryY=0.5;entryDx=0;entryDy=0;" edge="1" parent="1" source="2SqjKFACN-Qjn2k_Cwie-70" target="2SqjKFACN-Qjn2k_Cwie-83">
          <mxGeometry relative="1" as="geometry">
            <mxPoint x="1280" y="1560" as="targetPoint" />
            <Array as="points" />
          </mxGeometry>
        </mxCell>
        <mxCell id="2SqjKFACN-Qjn2k_Cwie-74" value="256 x 20 x 20" style="edgeLabel;html=1;align=center;verticalAlign=middle;resizable=0;points=[];" vertex="1" connectable="0" parent="2SqjKFACN-Qjn2k_Cwie-73">
          <mxGeometry x="0.014" y="-2" relative="1" as="geometry">
            <mxPoint y="-12" as="offset" />
          </mxGeometry>
        </mxCell>
        <mxCell id="2SqjKFACN-Qjn2k_Cwie-70" value="&lt;div&gt;CSP&lt;/div&gt;&lt;div&gt;out_ch=256, CSP = True&lt;/div&gt;" style="rounded=0;whiteSpace=wrap;html=1;fillColor=#e1d5e7;strokeColor=#9673a6;" vertex="1" parent="1">
          <mxGeometry x="790" y="1530" width="170" height="60" as="geometry" />
        </mxCell>
        <mxCell id="2SqjKFACN-Qjn2k_Cwie-75" value="&lt;b&gt;P5&lt;/b&gt;" style="text;html=1;align=center;verticalAlign=middle;resizable=0;points=[];autosize=1;strokeColor=none;fillColor=none;" vertex="1" parent="1">
          <mxGeometry x="960" y="1530" width="40" height="30" as="geometry" />
        </mxCell>
        <mxCell id="2SqjKFACN-Qjn2k_Cwie-83" value="&lt;div&gt;&lt;font&gt;Detect&lt;/font&gt;&lt;/div&gt;" style="rounded=0;whiteSpace=wrap;html=1;fillColor=#0050ef;strokeColor=#001DBC;fontColor=#ffffff;fontSize=15;" vertex="1" parent="1">
          <mxGeometry x="1172.86" y="1535" width="170" height="50" as="geometry" />
        </mxCell>
        <mxCell id="2SqjKFACN-Qjn2k_Cwie-84" value="&lt;div&gt;&lt;font&gt;Detect&lt;/font&gt;&lt;/div&gt;" style="rounded=0;whiteSpace=wrap;html=1;fillColor=#0050ef;strokeColor=#001DBC;fontColor=#ffffff;fontSize=15;" vertex="1" parent="1">
          <mxGeometry x="1172.86" y="1055" width="170" height="50" as="geometry" />
        </mxCell>
        <mxCell id="2SqjKFACN-Qjn2k_Cwie-85" value="&lt;div&gt;&lt;font&gt;Detect&lt;/font&gt;&lt;/div&gt;" style="rounded=0;whiteSpace=wrap;html=1;fillColor=#0050ef;strokeColor=#001DBC;fontColor=#ffffff;fontSize=15;" vertex="1" parent="1">
          <mxGeometry x="1172.86" y="515" width="170" height="50" as="geometry" />
        </mxCell>
        <mxCell id="2SqjKFACN-Qjn2k_Cwie-97" value="&lt;font&gt;Neck&lt;/font&gt;" style="text;html=1;align=center;verticalAlign=middle;whiteSpace=wrap;rounded=0;fontStyle=1;fontSize=30;labelBorderColor=none;fontColor=light-dark(#ff3333, #EDEDED);" vertex="1" parent="1">
          <mxGeometry x="668.5699999999999" y="440" width="130" height="40" as="geometry" />
        </mxCell>
        <mxCell id="2SqjKFACN-Qjn2k_Cwie-99" value="&lt;font&gt;Head&lt;/font&gt;" style="text;html=1;align=center;verticalAlign=middle;whiteSpace=wrap;rounded=0;fontStyle=1;fontSize=30;labelBorderColor=none;fontColor=light-dark(#b266ff, #EDEDED);" vertex="1" parent="1">
          <mxGeometry x="1192.86" y="440" width="130" height="40" as="geometry" />
        </mxCell>
        <mxCell id="2SqjKFACN-Qjn2k_Cwie-100" value="&lt;font&gt;jahongir7174&#39;s YOLOv11 Nano Architecture&lt;/font&gt;" style="text;html=1;align=center;verticalAlign=middle;whiteSpace=wrap;rounded=0;fontStyle=3;fontSize=27;labelBorderColor=none;fontColor=light-dark(#000000,#EDEDED);" vertex="1" parent="1">
          <mxGeometry x="628.5699999999999" y="120" width="410" height="160" as="geometry" />
        </mxCell>
      </root>
    </mxGraphModel>
  </diagram>
</mxfile>
